<svg xmlns="http://www.w3.org/2000/svg" viewBox="0 0 512 512" role="img" aria-labelledby="title desc"><title id="title">Muelo PHARM</title><desc id="desc">Symbole Muelo PHARM.</desc><defs><linearGradient id="bg" x1="0" y1="1" x2="1" y2="0"><stop offset="0" stop-color="#0757c9"/><stop offset=".58" stop-color="#08aee8"/><stop offset="1" stop-color="#22dfb2"/></linearGradient><linearGradient id="leaf" x1="0" y1="1" x2="1" y2="0"><stop offset="0" stop-color="#08c6c0"/><stop offset="1" stop-color="#4ce9ad"/></linearGradient></defs><rect width="512" height="512" rx="112" fill="#0b1930"/><path d="M92 355V170c0-55 44-99 99-99 31 0 58 14 78 37l73 81 47-52c17-19 42-30 67-30 12 0 23 10 23 23v45c0 8-6 14-14 14h-20c-8 0-14-6-14-14v-4c0-8-6-14-14-14-4 0-8 2-11 5l-69 77c-13 14-31 22-50 22s-37-8-50-22l-74-81c-4-4-9-6-14-6-9 0-16 7-16 16v185c0 8-6 14-14 14h-47c-8 0-14-6-14-14Z" fill="url(#bg)"/><path d="M220 374c25-60 70-93 135-100-3 57-36 101-99 128-22 10-46-5-36-28Z" fill="url(#leaf)"/><path d="M337 91h42v31h31v42h-31v31h-42v-31h-31v-42h31V91Z" fill="#31e1c4"/></svg>